<?xml version="1.0" standalone="no"?>
<!DOCTYPE svg PUBLIC "-//W3C//DTD SVG 20010904//EN"
 "http://www.w3.org/TR/2001/REC-SVG-20010904/DTD/svg10.dtd">
<svg version="1.0" xmlns="http://www.w3.org/2000/svg"
 width="5833.000000pt" height="5833.000000pt" viewBox="0 0 5833.000000 5833.000000"
 preserveAspectRatio="xMidYMid meet">

<g transform="translate(0.000000,5833.000000) scale(0.100000,-0.100000)"
fill="#000000" stroke="none">
<path d="M28460 56315 c-565 -326 -2302 -1330 -4900 -2830 -179 -103 -485
-280 -680 -393 -195 -113 -861 -497 -1480 -855 -619 -357 -1255 -725 -1415
-817 -159 -92 -535 -309 -835 -482 -533 -308 -1121 -647 -3295 -1903 -1111
-642 -1668 -963 -2060 -1190 -126 -73 -680 -393 -1230 -710 -550 -318 -1169
-675 -1375 -794 -206 -120 -522 -302 -702 -406 l-328 -189 0 -10972 c0 -8765
3 -10974 13 -10982 6 -5 233 -137 502 -292 480 -277 2207 -1274 2900 -1675
193 -111 1034 -597 1870 -1080 836 -483 1651 -953 1810 -1045 160 -92 623
-360 1030 -595 407 -235 929 -537 1161 -671 231 -133 427 -244 435 -246 12 -3
15 166 20 1257 6 1295 7 1325 50 1655 216 1659 1268 3117 2784 3860 571 280
1096 429 1775 502 160 17 8866 25 9135 8 912 -57 1734 -328 2477 -816 304
-199 528 -381 791 -642 402 -398 701 -807 957 -1307 239 -468 413 -1015 490
-1542 45 -313 49 -415 55 -1723 4 -685 10 -1248 14 -1252 3 -4 110 53 236 126
127 73 482 278 790 456 308 177 643 371 745 430 102 59 302 175 445 257 621
359 1681 971 2585 1493 536 309 1133 654 1325 765 526 304 2350 1358 2935
1695 283 164 549 317 590 342 l75 44 3 10975 2 10974 -157 92 c-87 50 -547
316 -1023 591 -476 274 -1346 777 -1935 1117 -588 340 -1488 860 -2000 1155
-511 295 -2050 1184 -3420 1975 -1369 791 -2850 1646 -3290 1900 -1011 584
-2126 1228 -2585 1493 -195 113 -614 354 -930 537 -316 183 -836 483 -1155
667 -319 184 -1001 578 -1515 875 -514 297 -948 547 -965 555 l-30 15 -695
-402z m1364 -4667 c974 -562 1159 -669 1841 -1063 341 -197 661 -382 710 -410
203 -116 675 -390 750 -434 44 -27 145 -86 225 -131 80 -46 213 -123 295 -170
446 -258 1133 -655 1220 -705 55 -32 156 -90 225 -130 69 -40 388 -224 710
-410 322 -186 653 -377 735 -425 83 -47 258 -149 390 -225 222 -128 308 -177
580 -335 228 -132 682 -394 715 -413 19 -10 76 -43 125 -72 50 -28 123 -71
163 -94 l74 -43 -34 -22 c-18 -13 -168 -105 -333 -206 -165 -100 -367 -224
-450 -275 -82 -51 -422 -259 -755 -462 -333 -204 -816 -500 -1075 -658 -258
-159 -537 -329 -620 -380 -82 -50 -303 -185 -490 -300 -942 -576 -1154 -705
-1164 -705 -5 0 -83 56 -173 124 -1010 762 -2212 1245 -3473 1395 -318 38
-454 45 -855 44 -445 0 -631 -12 -1030 -69 -1260 -180 -2489 -718 -3480 -1523
-255 -207 -641 -572 -831 -786 -804 -906 -1349 -1928 -1632 -3061 -106 -420
-163 -781 -202 -1259 -22 -273 -14 -894 15 -1160 5 -49 15 -135 21 -190 18
-163 75 -497 119 -695 239 -1078 731 -2101 1419 -2950 221 -273 574 -645 821
-864 1215 -1080 2689 -1698 4331 -1816 293 -20 969 -7 1194 25 22 3 99 12 170
21 1066 129 2135 526 3050 1134 435 288 761 556 1135 931 1002 1005 1679 2263
1959 3644 51 254 76 423 118 800 26 233 26 993 0 1250 -75 752 -223 1372 -487
2038 -45 115 -80 209 -78 211 1 1 48 30 103 63 55 33 161 98 235 143 74 46
185 113 245 150 61 37 228 140 373 228 145 89 267 162 272 162 4 0 49 -71 98
-157 50 -87 138 -241 197 -343 59 -102 167 -288 240 -415 72 -126 166 -288
207 -360 104 -180 275 -476 436 -755 74 -129 160 -278 190 -330 95 -164 234
-406 377 -655 76 -132 161 -276 191 -320 55 -82 185 -219 264 -278 138 -102
302 -175 480 -211 109 -23 350 -21 460 3 148 33 305 100 415 175 62 43 194
158 219 190 14 19 32 41 40 49 25 25 123 180 146 232 135 297 147 626 35 915
-33 87 -64 146 -195 370 -37 63 -154 266 -260 450 -369 638 -442 765 -480 830
-21 36 -163 281 -315 545 -152 264 -294 509 -315 545 -110 187 -396 685 -418
726 -11 21 8 34 369 254 209 128 382 230 384 228 2 -2 53 -89 113 -193 60
-105 162 -282 227 -395 140 -241 346 -600 435 -755 119 -209 233 -400 259
-435 95 -131 204 -231 349 -318 286 -174 649 -214 968 -107 163 55 304 139
432 260 179 168 289 362 349 615 27 116 24 386 -6 500 -47 177 -74 231 -408
805 -87 150 -158 273 -467 807 -135 234 -246 431 -246 437 0 9 203 141 218
141 3 0 67 -35 142 -79 153 -89 436 -253 680 -394 91 -52 266 -153 390 -225
124 -71 243 -140 265 -152 22 -12 60 -34 85 -50 25 -15 88 -52 140 -82 52 -30
129 -75 170 -99 41 -24 89 -51 105 -60 17 -9 53 -30 80 -46 l50 -29 1 -2815
c0 -1548 -3 -2670 -7 -2494 -3 176 -8 448 -10 605 l-4 285 -5 -325 -5 -325 -3
358 c-1 230 -6 357 -12 357 -5 0 -10 -15 -10 -34 0 -19 -6 -36 -13 -39 -10 -4
-13 -74 -16 -318 -1 -173 -4 -316 -7 -318 -2 -2 -4 66 -4 152 l0 157 -40 0
-40 0 0 -50 c0 -27 -4 -50 -10 -50 -5 0 -10 5 -10 10 0 6 -12 10 -26 10 -20 0
-25 -4 -20 -16 17 -45 18 -64 3 -64 -13 0 -17 -15 -19 -77 -2 -50 -7 -78 -15
-81 -9 -2 -13 9 -13 37 0 30 -4 41 -15 41 -11 0 -15 -11 -15 -40 0 -22 -4 -40
-10 -40 -5 0 -10 -18 -10 -40 0 -29 -4 -40 -15 -40 -11 0 -15 -11 -15 -40 0
-29 -4 -40 -15 -40 -11 0 -15 -11 -15 -40 0 -29 -4 -40 -15 -40 -9 0 -15 9
-15 25 0 30 -15 33 -30 5 -7 -14 -7 -20 0 -20 5 0 10 -20 10 -45 0 -41 -2 -45
-25 -45 -22 0 -25 -4 -25 -35 0 -24 5 -35 15 -35 18 0 19 -12 3 -28 -16 -16
-28 -15 -28 3 0 10 -11 15 -35 15 -33 0 -35 -2 -35 -35 0 -19 5 -35 10 -35 6
0 10 -20 10 -45 0 -41 -2 -45 -25 -45 -22 0 -25 -4 -25 -40 0 -29 -4 -40 -15
-40 -12 0 -15 -16 -15 -80 0 -47 -4 -80 -10 -80 -5 0 -10 -11 -10 -25 0 -16
-6 -25 -15 -25 -8 0 -15 -7 -15 -15 0 -9 -9 -15 -25 -15 -22 0 -25 -4 -25 -35
0 -19 5 -35 10 -35 6 0 10 -20 10 -45 0 -25 -4 -45 -10 -45 -5 0 -10 -15 -10
-32 0 -26 -9 -41 -40 -68 -22 -19 -40 -40 -40 -47 0 -6 -12 -13 -27 -15 l-28
-3 28 -26 c35 -34 34 -49 -4 -49 -31 0 -32 0 -27 -45 4 -31 1 -48 -8 -56 -8
-6 -14 -22 -14 -35 0 -13 -4 -24 -10 -24 -5 0 -10 -18 -10 -40 0 -22 -4 -40
-10 -40 -5 0 -10 -15 -10 -34 0 -26 5 -35 21 -39 31 -8 13 -27 -27 -27 -31 0
-34 -2 -34 -30 0 -27 -3 -30 -30 -30 -28 0 -30 -2 -30 -40 0 -36 -2 -40 -25
-40 -22 0 -25 -4 -25 -40 0 -36 -2 -40 -25 -40 -25 0 -25 -1 -25 -80 l0 -80
-55 0 -55 0 0 -35 c0 -24 5 -35 15 -35 11 0 15 -12 15 -45 0 -33 -4 -45 -15
-45 -11 0 -15 -11 -15 -40 0 -29 -4 -40 -15 -40 -12 0 -15 -15 -15 -76 0 -87
-10 -104 -64 -104 l-36 0 0 -75 c0 -73 -2 -78 -34 -110 -43 -46 -56 -44 -56 5
0 22 -5 40 -11 40 -13 0 -2 -143 12 -148 5 -2 9 -24 9 -48 0 -32 -4 -44 -15
-44 -8 0 -15 -4 -15 -10 0 -5 5 -10 11 -10 11 0 48 -40 49 -52 0 -5 -20 -8
-45 -8 -32 0 -45 4 -45 14 0 14 -48 32 -58 21 -3 -3 4 -8 16 -12 12 -3 22 -12
22 -21 0 -8 11 -25 25 -38 14 -13 25 -28 25 -34 0 -5 -11 -10 -25 -10 -22 0
-25 -4 -25 -40 0 -23 -5 -40 -11 -40 -7 0 -22 -11 -35 -25 -13 -14 -28 -25
-34 -25 -5 0 -10 11 -10 25 0 14 -4 25 -10 25 -5 0 -10 -16 -10 -35 0 -24 5
-35 15 -35 8 0 15 -7 15 -15 0 -11 -12 -16 -42 -17 l-43 -1 43 -4 c34 -3 42
-8 42 -24 0 -16 -7 -19 -40 -19 l-40 0 0 -40 c0 -22 5 -40 10 -40 6 0 10 -20
10 -45 0 -25 -4 -45 -10 -45 -5 0 -10 -16 -10 -35 0 -19 5 -35 10 -35 16 0 11
-72 -7 -92 -9 -10 -30 -18 -50 -18 -33 0 -33 -1 -33 -45 0 -39 -3 -45 -20 -45
-11 0 -23 7 -26 15 -4 8 -15 15 -25 15 -16 0 -19 7 -19 42 0 53 -6 46 -12 -14
-4 -37 -2 -48 8 -48 11 0 14 -21 14 -95 0 -92 -8 -114 -29 -78 -8 15 -11 14
-22 -12 -7 -17 -26 -42 -42 -57 -36 -33 -48 -83 -47 -205 l1 -93 -41 0 -40 0
0 -40 c0 -22 -4 -40 -10 -40 -5 0 -10 -18 -10 -40 0 -38 -2 -40 -30 -40 -28 0
-30 -2 -30 -40 0 -36 -2 -40 -25 -40 -22 0 -25 -4 -25 -40 0 -36 -2 -40 -25
-40 -22 0 -25 -4 -25 -40 0 -29 -4 -40 -15 -40 -11 0 -15 -11 -15 -40 0 -39
-1 -40 -35 -40 -33 0 -35 -2 -35 -35 l0 -35 50 0 c49 0 50 -1 50 -30 0 -28 -2
-30 -40 -30 -22 0 -40 -4 -40 -10 0 -5 7 -10 15 -10 8 0 15 -4 15 -9 0 -5 -7
-14 -15 -21 -18 -15 -20 -50 -4 -50 9 0 10 -22 5 -77 -9 -100 -17 -113 -66
-113 l-40 0 0 50 c0 28 -4 50 -10 50 -6 0 -10 -33 -10 -80 0 -71 -2 -80 -19
-80 -16 0 -20 -15 -31 -120 -11 -104 -15 -120 -31 -120 -14 0 -19 10 -22 43
-2 23 -4 -13 -5 -80 l-2 -123 -69 0 c-64 0 -69 -1 -64 -20 3 -11 12 -20 19
-20 8 0 14 -7 14 -15 0 -8 5 -15 10 -15 6 0 10 -20 10 -45 l0 -45 -50 0 -50 0
0 -35 c0 -31 3 -35 25 -35 32 0 32 -15 -2 -47 -19 -17 -24 -27 -15 -30 18 -7
16 -93 -3 -93 -9 0 -15 9 -15 25 0 14 -4 25 -9 25 -17 0 -41 -50 -41 -85 0
-29 -8 -44 -37 -73 l-38 -37 28 -3 c25 -3 27 -7 27 -48 0 -42 -1 -44 -30 -44
-28 0 -30 -2 -30 -40 0 -29 -4 -40 -15 -40 -11 0 -15 11 -15 40 0 22 -4 40
-10 40 -5 0 -10 -18 -10 -40 0 -36 -2 -40 -25 -40 -22 0 -25 -4 -25 -35 0 -19
5 -35 10 -35 6 0 10 -20 10 -45 0 -25 -4 -45 -10 -45 -5 0 -10 -18 -10 -40 l0
-40 -40 0 c-36 0 -40 -2 -40 -25 0 -22 -4 -25 -40 -25 -22 0 -40 -4 -40 -10 0
-5 11 -10 25 -10 23 0 25 -4 25 -45 0 -41 -2 -45 -25 -45 -22 0 -25 -4 -25
-35 0 -19 5 -35 10 -35 6 0 10 -20 10 -45 0 -25 -4 -45 -9 -45 -6 0 -11 -17
-13 -37 -3 -33 -7 -38 -30 -41 -25 -3 -28 -8 -28 -38 0 -27 -9 -44 -45 -81
-38 -38 -45 -52 -45 -84 0 -30 -4 -39 -17 -40 -11 0 -13 -3 -5 -6 6 -2 12 -16
12 -29 0 -13 -6 -24 -12 -25 -10 0 -10 -2 0 -6 7 -3 12 -23 12 -49 0 -42 -1
-44 -30 -44 -28 0 -30 -2 -30 -40 0 -22 -4 -40 -10 -40 -5 0 -10 -25 -10 -55
0 -40 -4 -55 -14 -55 -7 0 -16 -9 -19 -20 -4 -15 0 -20 14 -20 10 0 19 -7 19
-15 0 -11 -11 -15 -40 -15 -36 0 -40 -2 -40 -25 0 -14 5 -25 11 -25 6 0 9 -17
7 -40 -4 -50 -22 -53 -26 -5 -3 30 -7 35 -28 35 -21 0 -24 -4 -24 -40 0 -22
-4 -40 -10 -40 -6 0 -10 -28 -10 -65 l0 -65 -40 0 c-22 0 -40 -4 -40 -10 0 -5
11 -10 25 -10 23 0 25 -4 25 -45 0 -41 -2 -45 -25 -45 -22 0 -25 -4 -25 -35 0
-22 -6 -38 -15 -41 -10 -4 -15 -20 -15 -45 0 -35 -3 -39 -25 -39 -22 0 -25 -4
-25 -35 0 -19 5 -35 10 -35 6 0 10 -20 10 -45 0 -33 -4 -45 -15 -45 -11 0 -15
11 -15 40 0 22 -4 40 -10 40 -5 0 -10 -18 -10 -40 0 -29 -4 -40 -15 -40 -12 0
-15 -16 -15 -80 0 -64 -3 -80 -15 -80 -8 0 -15 7 -15 15 0 10 -11 15 -35 15
-19 0 -35 -4 -35 -10 0 -5 5 -10 10 -10 6 0 10 -20 10 -45 0 -25 -4 -45 -10
-45 -5 0 -10 -18 -10 -40 0 -38 -2 -40 -30 -40 l-30 0 0 -120 c0 -100 -2 -120
-15 -120 -12 0 -15 16 -15 80 0 47 -4 80 -10 80 -5 0 -10 -18 -10 -40 0 -36
-2 -40 -25 -40 -22 0 -25 -4 -25 -40 0 -29 -4 -40 -15 -40 -10 0 -15 -11 -15
-35 0 -31 3 -35 25 -35 23 0 25 -4 25 -45 0 -25 -4 -45 -10 -45 -5 0 -10 -18
-10 -40 0 -38 -2 -40 -30 -40 l-30 0 0 -80 c0 -64 -3 -80 -15 -80 -8 0 -15 5
-15 10 0 6 -7 10 -15 10 -8 0 -12 -6 -9 -15 3 -8 -5 -25 -20 -38 -21 -20 -26
-33 -26 -76 l0 -51 -55 0 -55 0 0 -35 c0 -24 5 -35 15 -35 8 0 15 -5 15 -10 0
-20 -67 -80 -89 -80 -17 0 -21 -6 -21 -35 0 -24 5 -35 15 -35 23 0 18 -20 -12
-49 l-28 -26 38 -3 c37 -3 37 -4 37 -48 l0 -44 -50 0 -50 0 0 -40 c0 -29 -4
-40 -15 -40 -10 0 -15 -11 -15 -35 0 -24 5 -35 15 -35 11 0 15 -12 15 -45 0
-43 -1 -45 -30 -45 -28 0 -30 -2 -30 -40 0 -22 -4 -40 -10 -40 -5 0 -10 -25
-10 -55 0 -56 -8 -67 -30 -40 -17 20 -50 19 -50 -2 0 -25 30 -53 57 -53 14 0
23 -6 23 -15 0 -11 -12 -15 -45 -15 -25 0 -45 5 -45 10 0 6 -4 10 -10 10 -5 0
-10 -18 -10 -40 0 -29 -4 -40 -15 -40 -11 0 -15 -11 -15 -40 0 -38 1 -40 25
-34 30 7 33 -1 5 -16 -21 -11 -65 3 -56 18 2 4 -7 8 -20 8 -13 1 -24 -3 -24
-9 0 -6 -13 2 -30 18 -16 15 -27 32 -24 36 3 5 -2 6 -11 3 -11 -5 -14 -2 -9
10 5 12 2 15 -12 9 -11 -4 -15 -3 -11 4 4 6 -1 17 -10 24 -11 10 -14 10 -9 2
5 -9 2 -11 -8 -7 -9 3 -13 10 -10 15 3 5 -3 12 -13 16 -10 3 -35 24 -56 45
-21 21 -42 38 -47 38 -4 0 -25 16 -46 35 -22 20 -51 42 -66 51 -16 8 -28 19
-28 24 0 6 -6 10 -14 10 -8 0 -16 3 -18 8 -1 4 -29 27 -60 51 -32 24 -58 47
-58 52 0 5 -6 9 -12 9 -7 0 -58 32 -113 71 -91 65 -180 125 -320 214 -208 134
-637 359 -885 465 -80 34 -158 67 -175 75 -220 98 -784 271 -1090 335 -443 92
-775 133 -1220 149 -368 14 -11932 -3 -12065 -18 -52 -5 -142 -15 -200 -21
-260 -27 -622 -92 -905 -164 -2231 -562 -4049 -2246 -4779 -4426 -49 -148 -80
-249 -131 -432 -8 -32 -19 -58 -24 -58 -4 0 -235 131 -512 291 -875 506 -1523
879 -1871 1080 l-338 194 3 8634 2 8634 1025 591 c564 325 1282 739 1595 920
314 181 611 353 660 382 50 29 428 247 840 484 413 238 802 463 865 500 63 36
194 112 290 167 179 104 1013 584 1175 678 50 28 151 87 225 130 74 43 295
170 490 283 195 112 427 246 515 297 88 51 295 170 460 265 165 95 368 212
450 260 162 94 344 199 745 430 140 81 476 274 745 430 270 156 681 393 915
528 234 134 497 286 585 337 223 129 738 427 995 575 118 68 341 196 495 285
154 89 429 248 610 352 182 105 537 310 790 457 253 146 464 265 469 266 5 0
306 -172 670 -382z m-344 -9433 c260 -21 355 -34 553 -75 210 -44 454 -113
618 -175 836 -317 1505 -831 2026 -1555 60 -83 203 -306 203 -315 0 -3 11 -22
23 -43 97 -154 242 -479 328 -731 107 -316 167 -582 211 -941 17 -141 17 -789
0 -920 -26 -197 -35 -249 -64 -395 -260 -1299 -1106 -2404 -2296 -3000 -442
-221 -956 -371 -1452 -425 -627 -67 -1258 1 -1853 201 -906 304 -1670 890
-2207 1693 -211 315 -393 690 -508 1046 -176 544 -243 1120 -198 1680 16 184
18 209 42 358 112 701 402 1369 843 1942 168 219 340 403 536 574 325 285 584
460 951 643 439 220 860 347 1379 419 236 32 604 40 865 19z m14547 -4027 c-2
-29 -3 -8 -3 47 0 55 1 79 3 53 2 -26 2 -71 0 -100z m0 -270 c-2 -35 -3 -9 -3
57 0 66 1 94 3 63 2 -32 2 -86 0 -120z m-347 -43 c0 -16 -27 -32 -37 -21 -7 7
16 36 28 36 5 0 9 -7 9 -15z m-80 -190 c0 -11 -12 -15 -45 -15 -33 0 -45 4
-45 15 0 11 12 15 45 15 33 0 45 -4 45 -15z m-140 -270 c0 -33 -4 -45 -15 -45
-11 0 -15 12 -15 45 0 33 4 45 15 45 11 0 15 -12 15 -45z m-180 -505 c0 -13
-7 -20 -20 -20 -23 0 -26 10 -8 28 18 18 28 15 28 -8z m-350 -775 c0 -33 -4
-45 -15 -45 -11 0 -15 12 -15 45 0 33 4 45 15 45 11 0 15 -12 15 -45z m-192
-477 c-2 -24 -7 -43 -13 -43 -5 0 -11 19 -13 43 -3 33 0 42 13 42 13 0 16 -9
13 -42z m-23 -128 c11 -17 -5 -32 -21 -19 -8 6 -14 15 -14 20 0 12 27 11 35
-1z m-555 -1160 c0 -33 -3 -40 -20 -40 -22 0 -27 28 -10 61 17 31 30 22 30
-21z m-222 -632 c-2 -24 -7 -43 -13 -43 -5 0 -11 19 -13 43 -3 33 0 42 13 42
13 0 16 -9 13 -42z m-48 -48 c0 -13 -37 -50 -50 -50 -5 0 -10 14 -10 30 0 27
3 30 30 30 17 0 30 -4 30 -10z m-50 -220 c0 -13 -7 -20 -20 -20 -23 0 -26 10
-8 28 18 18 28 15 28 -8z m-140 -295 c0 -38 -3 -45 -20 -45 -17 0 -20 7 -20
45 0 38 3 45 20 45 17 0 20 -7 20 -45z m-820 -1920 c0 -25 -4 -45 -10 -45 -5
0 -10 20 -10 45 0 25 5 45 10 45 6 0 10 -20 10 -45z m-620 -1600 c0 -33 -4
-45 -15 -45 -11 0 -15 12 -15 45 0 33 4 45 15 45 11 0 15 -12 15 -45z m-682
-1738 c6 -5 18 -5 25 -1 9 6 9 5 -1 -8 -10 -13 -9 -18 5 -29 14 -12 16 -12 9
0 -6 9 -5 12 5 9 8 -3 13 -13 11 -23 -4 -20 17 -77 31 -86 5 -4 7 -13 4 -20
-3 -9 -10 -1 -19 20 l-15 33 -6 -30 c-8 -41 -32 -48 -35 -10 -2 18 2 27 8 23
6 -3 7 -11 4 -17 -4 -6 -2 -8 4 -4 11 7 9 37 -4 58 -4 7 -3 8 4 4 7 -4 12 -2
12 3 0 6 -9 11 -21 11 -11 0 -17 4 -14 10 3 6 -1 7 -9 4 -9 -3 -16 -1 -16 5 0
6 -7 8 -15 5 -8 -4 -12 -10 -9 -15 3 -5 -1 -9 -8 -9 -8 -1 -6 -6 6 -15 20 -15
20 -15 0 -16 -16 -1 -17 -2 -1 -6 9 -2 17 -12 17 -20 0 -14 -3 -14 -20 2 -11
10 -20 24 -20 32 0 8 -4 11 -10 8 -5 -3 -10 -1 -10 5 0 6 7 13 15 16 11 4 12
10 6 18 -7 8 -3 16 12 26 20 12 21 12 8 -3 -7 -10 -9 -17 -3 -17 12 0 24 28
17 40 -6 10 15 8 33 -3z m-113 -18 c5 -5 1 -9 -12 -9 -11 0 -27 7 -34 16 -12
15 -11 16 11 9 14 -4 29 -11 35 -16z m43 4 c-9 -10 -14 -23 -11 -29 7 -19 -25
-24 -39 -6 -7 8 -8 13 -2 9 6 -3 21 5 32 18 12 14 25 25 28 25 4 0 0 -8 -8
-17z m142 -163 c0 -5 -4 -10 -10 -10 -5 0 -10 5 -10 10 0 6 5 10 10 10 6 0 10
-4 10 -10z m84 -7 c-26 -19 -50 -18 -35 1 7 8 21 14 32 13 19 -1 19 -2 3 -14z
m13 -19 c-3 -3 -12 -4 -19 -1 -8 3 -5 6 6 6 11 1 17 -2 13 -5z m-42 -14 c-3
-5 -12 -10 -18 -10 -7 0 -6 4 3 10 19 12 23 12 15 0z m-35 -20 c0 -5 10 -10
23 -11 21 0 21 -1 2 -9 -11 -5 -14 -9 -7 -9 6 -1 12 -7 12 -13 0 -7 -11 -1
-25 14 -27 29 -31 38 -15 38 6 0 10 -4 10 -10z m120 -5 c0 -8 -4 -15 -10 -15
-5 0 -10 7 -10 15 0 8 5 15 10 15 6 0 10 -7 10 -15z m25 -55 c3 -5 1 -10 -4
-10 -6 0 -11 5 -11 10 0 6 2 10 4 10 3 0 8 -4 11 -10z m-25 -20 c0 -5 -2 -10
-4 -10 -3 0 -8 5 -11 10 -3 6 -1 10 4 10 6 0 11 -4 11 -10z m45 -10 c-3 -5
-12 -10 -18 -10 -7 0 -6 4 3 10 19 12 23 12 15 0z m5 -30 c0 -5 -2 -10 -4 -10
-3 0 -8 5 -11 10 -3 6 -1 10 4 10 6 0 11 -4 11 -10z m55 -120 c3 -5 1 -10 -4
-10 -6 0 -11 5 -11 10 0 6 2 10 4 10 3 0 8 -4 11 -10z"/>
<path d="M44084 39375 c0 -132 2 -185 3 -117 2 68 2 176 0 240 -1 64 -3 9 -3
-123z"/>
<path d="M43970 39175 c0 -19 5 -35 10 -35 6 0 10 16 10 35 0 19 -4 35 -10 35
-5 0 -10 -16 -10 -35z"/>
<path d="M43920 39070 c0 -5 16 -10 35 -10 19 0 35 5 35 10 0 6 -16 10 -35 10
-19 0 -35 -4 -35 -10z"/>
<path d="M43920 38695 c0 -22 4 -25 40 -25 36 0 40 3 40 25 0 23 -4 25 -40 25
-36 0 -40 -2 -40 -25z"/>
<path d="M43760 38590 c0 -5 16 -10 35 -10 19 0 35 5 35 10 0 6 -16 10 -35 10
-19 0 -35 -4 -35 -10z"/>
<path d="M43730 38560 c0 -5 5 -10 10 -10 6 0 10 5 10 10 0 6 -4 10 -10 10 -5
0 -10 -4 -10 -10z"/>
<path d="M43680 38510 c0 -5 5 -10 10 -10 6 0 10 5 10 10 0 6 -4 10 -10 10 -5
0 -10 -4 -10 -10z"/>
<path d="M43620 38455 c0 -24 5 -35 15 -35 10 0 15 11 15 35 0 24 -5 35 -15
35 -10 0 -15 -11 -15 -35z"/>
<path d="M43680 38400 c0 -5 5 -10 10 -10 6 0 10 5 10 10 0 6 -4 10 -10 10 -5
0 -10 -4 -10 -10z"/>
<path d="M43730 38350 c0 -5 5 -10 10 -10 6 0 10 5 10 10 0 6 -4 10 -10 10 -5
0 -10 -4 -10 -10z"/>
<path d="M43680 38215 c0 -19 5 -35 10 -35 6 0 10 16 10 35 0 19 -4 35 -10 35
-5 0 -10 -16 -10 -35z"/>
<path d="M43360 37870 c0 -5 16 -10 35 -10 19 0 35 5 35 10 0 6 -16 10 -35 10
-19 0 -35 -4 -35 -10z"/>
<path d="M43460 37815 c0 -24 5 -35 15 -35 10 0 15 11 15 35 0 24 -5 35 -15
35 -10 0 -15 -11 -15 -35z"/>
<path d="M43330 37535 c0 -43 4 -75 10 -75 6 0 10 11 10 25 0 16 6 25 15 25 8
0 15 5 15 10 0 6 -7 10 -15 10 -11 0 -15 11 -15 40 0 22 -4 40 -10 40 -6 0
-10 -32 -10 -75z"/>
<path d="M43240 37350 c6 -11 15 -20 20 -20 6 0 10 9 10 20 0 13 -7 20 -20 20
-18 0 -19 -3 -10 -20z"/>
<path d="M43123 36855 c0 -22 2 -30 4 -17 2 12 2 30 0 40 -3 9 -5 -1 -4 -23z"/>
<path d="M43040 36800 c0 -5 5 -10 10 -10 6 0 10 5 10 10 0 6 -4 10 -10 10 -5
0 -10 -4 -10 -10z"/>
<path d="M43090 36750 c0 -5 7 -10 15 -10 8 0 15 5 15 10 0 6 -7 10 -15 10 -8
0 -15 -4 -15 -10z"/>
<path d="M42930 36535 c0 -19 5 -35 10 -35 6 0 10 16 10 35 0 19 -4 35 -10 35
-5 0 -10 -16 -10 -35z"/>
<path d="M42720 36160 c0 -5 16 -10 35 -10 19 0 35 5 35 10 0 6 -16 10 -35 10
-19 0 -35 -4 -35 -10z"/>
<path d="M42690 36055 c0 -19 5 -35 10 -35 6 0 10 16 10 35 0 19 -4 35 -10 35
-5 0 -10 -16 -10 -35z"/>
<path d="M42640 35975 c0 -19 5 -35 10 -35 6 0 10 16 10 35 0 19 -4 35 -10 35
-5 0 -10 -16 -10 -35z"/>
<path d="M42767 35960 c-3 -13 0 -20 9 -20 8 0 14 9 14 20 0 11 -4 20 -9 20
-5 0 -11 -9 -14 -20z"/>
<path d="M42563 35655 c0 -22 2 -30 4 -17 2 12 2 30 0 40 -3 9 -5 -1 -4 -23z"/>
<path d="M42450 35495 c0 -19 5 -35 10 -35 6 0 10 16 10 35 0 19 -4 35 -10 35
-5 0 -10 -16 -10 -35z"/>
<path d="M42290 35095 c0 -31 3 -35 25 -35 22 0 25 4 25 35 0 31 -3 35 -25 35
-22 0 -25 -4 -25 -35z"/>
<path d="M42370 35015 c0 -19 5 -35 10 -35 6 0 10 16 10 35 0 19 -4 35 -10 35
-5 0 -10 -16 -10 -35z"/>
<path d="M42290 34855 c0 -19 5 -35 10 -35 6 0 10 16 10 35 0 19 -4 35 -10 35
-5 0 -10 -16 -10 -35z"/>
<path d="M42340 34855 c0 -31 3 -35 25 -35 22 0 25 4 25 35 0 31 -3 35 -25 35
-22 0 -25 -4 -25 -35z"/>
<path d="M42163 34775 c0 -22 2 -30 4 -17 2 12 2 30 0 40 -3 9 -5 -1 -4 -23z"/>
<path d="M42160 34670 c0 -5 5 -10 10 -10 6 0 10 5 10 10 0 6 -4 10 -10 10 -5
0 -10 -4 -10 -10z"/>
<path d="M41970 34295 c0 -19 5 -35 10 -35 6 0 10 16 10 35 0 19 -4 35 -10 35
-5 0 -10 -16 -10 -35z"/>
<path d="M42049 34287 c-5 -52 -1 -77 12 -77 5 0 9 27 9 60 0 69 -16 82 -21
17z"/>
<path d="M41680 33681 c0 -6 -19 -12 -42 -14 l-43 -4 42 -1 c35 -2 42 -6 46
-24 3 -14 5 -9 6 15 0 20 -1 37 -4 37 -3 0 -5 -4 -5 -9z"/>
<path d="M41650 33520 c0 -5 5 -10 10 -10 6 0 10 5 10 10 0 6 -4 10 -10 10 -5
0 -10 -4 -10 -10z"/>
<path d="M41600 33470 c0 -5 5 -10 10 -10 6 0 10 5 10 10 0 6 -4 10 -10 10 -5
0 -10 -4 -10 -10z"/>
<path d="M41680 33415 c0 -19 5 -35 10 -35 6 0 10 -18 10 -40 0 -36 3 -40 25
-40 24 0 25 2 25 75 l0 75 -35 0 c-33 0 -35 -2 -35 -35z"/>
<path d="M41520 33150 c0 -5 16 -10 35 -10 19 0 35 5 35 10 0 6 -16 10 -35 10
-19 0 -35 -4 -35 -10z"/>
<path d="M41328 32688 c-22 -22 -22 -23 -3 -27 10 -2 21 2 23 8 2 6 21 11 43
11 28 0 39 4 39 15 0 25 -75 20 -102 -7z"/>
<path d="M41120 32320 c0 -5 5 -10 10 -10 6 0 10 5 10 10 0 6 -4 10 -10 10 -5
0 -10 -4 -10 -10z"/>
<path d="M41170 32270 c0 -5 5 -10 10 -10 6 0 10 5 10 10 0 6 -4 10 -10 10 -5
0 -10 -4 -10 -10z"/>
<path d="M41090 32240 c0 -5 5 -10 10 -10 6 0 10 5 10 10 0 6 -4 10 -10 10 -5
0 -10 -4 -10 -10z"/>
<path d="M41040 32190 c0 -5 5 -10 10 -10 6 0 10 5 10 10 0 6 -4 10 -10 10 -5
0 -10 -4 -10 -10z"/>
<path d="M41080 31960 c-9 -17 -8 -20 10 -20 13 0 20 7 20 20 0 11 -4 20 -10
20 -5 0 -14 -9 -20 -20z"/>
<path d="M40930 31575 c0 -19 5 -35 10 -35 6 0 10 16 10 35 0 19 -4 35 -10 35
-5 0 -10 -16 -10 -35z"/>
<path d="M40850 31415 c0 -19 5 -35 10 -35 6 0 10 16 10 35 0 19 -4 35 -10 35
-5 0 -10 -16 -10 -35z"/>
<path d="M40750 31175 c0 -8 5 -15 10 -15 6 0 10 7 10 15 0 8 -4 15 -10 15 -5
0 -10 -7 -10 -15z"/>
<path d="M40690 31095 c0 -19 5 -35 10 -35 6 0 10 16 10 35 0 19 -4 35 -10 35
-5 0 -10 -16 -10 -35z"/>
<path d="M40578 31003 c12 -2 30 -2 40 0 9 3 -1 5 -23 4 -22 0 -30 -2 -17 -4z"/>
<path d="M40610 30920 c0 -27 5 -50 10 -50 6 0 10 23 10 50 0 28 -4 50 -10 50
-5 0 -10 -22 -10 -50z"/>
<path d="M40560 30830 c0 -5 5 -10 10 -10 6 0 10 5 10 10 0 6 -4 10 -10 10 -5
0 -10 -4 -10 -10z"/>
<path d="M40400 30480 c0 -5 5 -10 10 -10 6 0 10 5 10 10 0 6 -4 10 -10 10 -5
0 -10 -4 -10 -10z"/>
<path d="M40450 30430 c0 -5 5 -10 10 -10 6 0 10 5 10 10 0 6 -4 10 -10 10 -5
0 -10 -4 -10 -10z"/>
<path d="M40323 30375 c0 -22 2 -30 4 -17 2 12 2 30 0 40 -3 9 -5 -1 -4 -23z"/>
<path d="M40383 30375 c0 -22 2 -30 4 -17 2 12 2 30 0 40 -3 9 -5 -1 -4 -23z"/>
<path d="M40290 30055 c0 -19 5 -35 10 -35 6 0 10 16 10 35 0 19 -4 35 -10 35
-5 0 -10 -16 -10 -35z"/>
<path d="M40000 29440 c0 -5 5 -10 10 -10 6 0 10 5 10 10 0 6 -4 10 -10 10 -5
0 -10 -4 -10 -10z"/>
<path d="M40050 29390 c0 -5 5 -10 10 -10 6 0 10 5 10 10 0 6 -4 10 -10 10 -5
0 -10 -4 -10 -10z"/>
<path d="M39968 29203 c7 -3 16 -2 19 1 4 3 -2 6 -13 5 -11 0 -14 -3 -6 -6z"/>
<path d="M39250 28080 c0 -5 7 -10 16 -10 8 0 12 5 9 10 -3 6 -10 10 -16 10
-5 0 -9 -4 -9 -10z"/>
<path d="M39332 28058 c6 -18 28 -21 28 -4 0 9 -7 16 -16 16 -9 0 -14 -5 -12
-12z"/>
<path d="M39370 27970 c0 -5 5 -10 11 -10 5 0 7 5 4 10 -3 6 -8 10 -11 10 -2
0 -4 -4 -4 -10z"/>
<path d="M21590 17799 c-525 -59 -979 -332 -1265 -759 -452 -675 -374 -1572
188 -2157 152 -159 178 -177 727 -513 201 -123 601 -368 890 -545 289 -177
847 -519 1240 -760 393 -241 983 -602 1310 -803 327 -200 825 -505 1105 -677
281 -172 938 -575 1460 -895 523 -321 991 -604 1042 -630 246 -127 538 -193
837 -189 304 3 492 30 697 99 157 52 255 104 619 327 162 99 477 292 700 428
223 136 716 438 1095 670 380 232 884 540 1120 685 786 481 1761 1078 2550
1560 429 262 968 592 1198 733 230 141 455 282 500 314 109 77 296 266 380
383 83 117 195 341 237 475 137 435 108 872 -86 1275 -173 360 -450 638 -807
810 -405 196 -852 228 -1272 93 -222 -71 -76 14 -2400 -1408 -884 -541 -1027
-629 -2975 -1820 -690 -422 -1312 -803 -1383 -846 -70 -44 -130 -79 -132 -79
-3 0 -573 348 -1268 773 -3299 2022 -4445 2724 -4832 2962 -231 142 -471 284
-533 316 -284 146 -637 212 -942 178z"/>
<path d="M21445 11350 c-531 -95 -984 -425 -1235 -902 -158 -300 -225 -648
-189 -976 52 -482 300 -920 679 -1204 41 -31 624 -392 1295 -803 2365 -1449
4380 -2684 5275 -3233 498 -306 952 -579 1010 -608 282 -141 532 -190 920
-180 291 8 473 40 667 117 161 64 150 58 1133 659 272 167 725 443 1005 615
281 172 854 523 1275 780 421 257 1148 702 1615 988 468 286 1122 687 1455
890 333 204 733 449 890 544 314 192 395 249 513 362 368 351 570 876 527
1370 -37 437 -202 793 -505 1096 -248 249 -530 401 -885 477 -92 20 -134 23
-335 23 -202 0 -243 -3 -335 -23 -257 -56 -397 -119 -755 -338 -126 -78 -522
-320 -880 -539 -357 -219 -879 -538 -1160 -710 -280 -172 -1086 -664 -1790
-1095 -704 -431 -1541 -943 -1860 -1138 -319 -195 -592 -362 -606 -370 -25
-15 -38 -8 -610 343 -321 197 -1432 878 -2469 1513 -1037 635 -2222 1362
-2635 1615 -412 253 -784 481 -825 505 -157 94 -350 170 -542 213 -139 32
-489 36 -643 9z"/>
</g>
</svg>
